%TF.GenerationSoftware,KiCad,Pcbnew,(6.0.1)*%
%TF.CreationDate,2022-03-20T21:24:39-04:00*%
%TF.ProjectId,jwrr3-usb-5v,6a777272-332d-4757-9362-2d35762e6b69,rev?*%
%TF.SameCoordinates,Original*%
%TF.FileFunction,Legend,Bot*%
%TF.FilePolarity,Positive*%
%FSLAX46Y46*%
G04 Gerber Fmt 4.6, Leading zero omitted, Abs format (unit mm)*
G04 Created by KiCad (PCBNEW (6.0.1)) date 2022-03-20 21:24:39*
%MOMM*%
%LPD*%
G01*
G04 APERTURE LIST*
%ADD10C,0.150000*%
%ADD11C,0.120000*%
G04 APERTURE END LIST*
D10*
X118871428Y-66232571D02*
X119357142Y-66232571D01*
X119414285Y-66261142D01*
X119442857Y-66289714D01*
X119471428Y-66346857D01*
X119471428Y-66461142D01*
X119442857Y-66518285D01*
X119414285Y-66546857D01*
X119357142Y-66575428D01*
X118871428Y-66575428D01*
X119442857Y-66832571D02*
X119471428Y-66918285D01*
X119471428Y-67061142D01*
X119442857Y-67118285D01*
X119414285Y-67146857D01*
X119357142Y-67175428D01*
X119300000Y-67175428D01*
X119242857Y-67146857D01*
X119214285Y-67118285D01*
X119185714Y-67061142D01*
X119157142Y-66946857D01*
X119128571Y-66889714D01*
X119100000Y-66861142D01*
X119042857Y-66832571D01*
X118985714Y-66832571D01*
X118928571Y-66861142D01*
X118900000Y-66889714D01*
X118871428Y-66946857D01*
X118871428Y-67089714D01*
X118900000Y-67175428D01*
X119157142Y-67632571D02*
X119185714Y-67718285D01*
X119214285Y-67746857D01*
X119271428Y-67775428D01*
X119357142Y-67775428D01*
X119414285Y-67746857D01*
X119442857Y-67718285D01*
X119471428Y-67661142D01*
X119471428Y-67432571D01*
X118871428Y-67432571D01*
X118871428Y-67632571D01*
X118900000Y-67689714D01*
X118928571Y-67718285D01*
X118985714Y-67746857D01*
X119042857Y-67746857D01*
X119100000Y-67718285D01*
X119128571Y-67689714D01*
X119157142Y-67632571D01*
X119157142Y-67432571D01*
X119471428Y-68489714D02*
X118871428Y-68489714D01*
X118871428Y-68718285D01*
X118900000Y-68775428D01*
X118928571Y-68804000D01*
X118985714Y-68832571D01*
X119071428Y-68832571D01*
X119128571Y-68804000D01*
X119157142Y-68775428D01*
X119185714Y-68718285D01*
X119185714Y-68489714D01*
X118871428Y-69204000D02*
X118871428Y-69318285D01*
X118900000Y-69375428D01*
X118957142Y-69432571D01*
X119071428Y-69461142D01*
X119271428Y-69461142D01*
X119385714Y-69432571D01*
X119442857Y-69375428D01*
X119471428Y-69318285D01*
X119471428Y-69204000D01*
X119442857Y-69146857D01*
X119385714Y-69089714D01*
X119271428Y-69061142D01*
X119071428Y-69061142D01*
X118957142Y-69089714D01*
X118900000Y-69146857D01*
X118871428Y-69204000D01*
X118871428Y-69661142D02*
X119471428Y-69804000D01*
X119042857Y-69918285D01*
X119471428Y-70032571D01*
X118871428Y-70175428D01*
X119157142Y-70404000D02*
X119157142Y-70604000D01*
X119471428Y-70689714D02*
X119471428Y-70404000D01*
X118871428Y-70404000D01*
X118871428Y-70689714D01*
X119471428Y-71289714D02*
X119185714Y-71089714D01*
X119471428Y-70946857D02*
X118871428Y-70946857D01*
X118871428Y-71175428D01*
X118900000Y-71232571D01*
X118928571Y-71261142D01*
X118985714Y-71289714D01*
X119071428Y-71289714D01*
X119128571Y-71261142D01*
X119157142Y-71232571D01*
X119185714Y-71175428D01*
X119185714Y-70946857D01*
X118871428Y-72118285D02*
X118871428Y-72232571D01*
X118900000Y-72289714D01*
X118957142Y-72346857D01*
X119071428Y-72375428D01*
X119271428Y-72375428D01*
X119385714Y-72346857D01*
X119442857Y-72289714D01*
X119471428Y-72232571D01*
X119471428Y-72118285D01*
X119442857Y-72061142D01*
X119385714Y-72004000D01*
X119271428Y-71975428D01*
X119071428Y-71975428D01*
X118957142Y-72004000D01*
X118900000Y-72061142D01*
X118871428Y-72118285D01*
X119471428Y-72632571D02*
X118871428Y-72632571D01*
X119471428Y-72975428D01*
X118871428Y-72975428D01*
X119471428Y-73546857D02*
X119471428Y-73261142D01*
X118871428Y-73261142D01*
X119185714Y-73861142D02*
X119471428Y-73861142D01*
X118871428Y-73661142D02*
X119185714Y-73861142D01*
X118871428Y-74061142D01*
X123835714Y-63871428D02*
X123835714Y-64300000D01*
X123864285Y-64385714D01*
X123921428Y-64442857D01*
X124007142Y-64471428D01*
X124064285Y-64471428D01*
X123607142Y-63871428D02*
X123464285Y-64471428D01*
X123350000Y-64042857D01*
X123235714Y-64471428D01*
X123092857Y-63871428D01*
X122521428Y-64471428D02*
X122721428Y-64185714D01*
X122864285Y-64471428D02*
X122864285Y-63871428D01*
X122635714Y-63871428D01*
X122578571Y-63900000D01*
X122550000Y-63928571D01*
X122521428Y-63985714D01*
X122521428Y-64071428D01*
X122550000Y-64128571D01*
X122578571Y-64157142D01*
X122635714Y-64185714D01*
X122864285Y-64185714D01*
X121921428Y-64471428D02*
X122121428Y-64185714D01*
X122264285Y-64471428D02*
X122264285Y-63871428D01*
X122035714Y-63871428D01*
X121978571Y-63900000D01*
X121950000Y-63928571D01*
X121921428Y-63985714D01*
X121921428Y-64071428D01*
X121950000Y-64128571D01*
X121978571Y-64157142D01*
X122035714Y-64185714D01*
X122264285Y-64185714D01*
X121721428Y-63871428D02*
X121350000Y-63871428D01*
X121550000Y-64100000D01*
X121464285Y-64100000D01*
X121407142Y-64128571D01*
X121378571Y-64157142D01*
X121350000Y-64214285D01*
X121350000Y-64357142D01*
X121378571Y-64414285D01*
X121407142Y-64442857D01*
X121464285Y-64471428D01*
X121635714Y-64471428D01*
X121692857Y-64442857D01*
X121721428Y-64414285D01*
X120635714Y-63871428D02*
X120635714Y-64357142D01*
X120607142Y-64414285D01*
X120578571Y-64442857D01*
X120521428Y-64471428D01*
X120407142Y-64471428D01*
X120350000Y-64442857D01*
X120321428Y-64414285D01*
X120292857Y-64357142D01*
X120292857Y-63871428D01*
X120035714Y-64442857D02*
X119950000Y-64471428D01*
X119807142Y-64471428D01*
X119750000Y-64442857D01*
X119721428Y-64414285D01*
X119692857Y-64357142D01*
X119692857Y-64300000D01*
X119721428Y-64242857D01*
X119750000Y-64214285D01*
X119807142Y-64185714D01*
X119921428Y-64157142D01*
X119978571Y-64128571D01*
X120007142Y-64100000D01*
X120035714Y-64042857D01*
X120035714Y-63985714D01*
X120007142Y-63928571D01*
X119978571Y-63900000D01*
X119921428Y-63871428D01*
X119778571Y-63871428D01*
X119692857Y-63900000D01*
X119235714Y-64157142D02*
X119150000Y-64185714D01*
X119121428Y-64214285D01*
X119092857Y-64271428D01*
X119092857Y-64357142D01*
X119121428Y-64414285D01*
X119150000Y-64442857D01*
X119207142Y-64471428D01*
X119435714Y-64471428D01*
X119435714Y-63871428D01*
X119235714Y-63871428D01*
X119178571Y-63900000D01*
X119150000Y-63928571D01*
X119121428Y-63985714D01*
X119121428Y-64042857D01*
X119150000Y-64100000D01*
X119178571Y-64128571D01*
X119235714Y-64157142D01*
X119435714Y-64157142D01*
X118835714Y-64242857D02*
X118378571Y-64242857D01*
X117807142Y-63871428D02*
X118092857Y-63871428D01*
X118121428Y-64157142D01*
X118092857Y-64128571D01*
X118035714Y-64100000D01*
X117892857Y-64100000D01*
X117835714Y-64128571D01*
X117807142Y-64157142D01*
X117778571Y-64214285D01*
X117778571Y-64357142D01*
X117807142Y-64414285D01*
X117835714Y-64442857D01*
X117892857Y-64471428D01*
X118035714Y-64471428D01*
X118092857Y-64442857D01*
X118121428Y-64414285D01*
X117607142Y-63871428D02*
X117407142Y-64471428D01*
X117207142Y-63871428D01*
%TO.C,J2*%
X117000000Y-75271428D02*
X117000000Y-75700000D01*
X117028571Y-75785714D01*
X117085714Y-75842857D01*
X117171428Y-75871428D01*
X117228571Y-75871428D01*
X116742857Y-75328571D02*
X116714285Y-75300000D01*
X116657142Y-75271428D01*
X116514285Y-75271428D01*
X116457142Y-75300000D01*
X116428571Y-75328571D01*
X116400000Y-75385714D01*
X116400000Y-75442857D01*
X116428571Y-75528571D01*
X116771428Y-75871428D01*
X116400000Y-75871428D01*
%TO.C,J3*%
X124660000Y-75271428D02*
X124660000Y-75700000D01*
X124688571Y-75785714D01*
X124745714Y-75842857D01*
X124831428Y-75871428D01*
X124888571Y-75871428D01*
X124431428Y-75271428D02*
X124060000Y-75271428D01*
X124260000Y-75500000D01*
X124174285Y-75500000D01*
X124117142Y-75528571D01*
X124088571Y-75557142D01*
X124060000Y-75614285D01*
X124060000Y-75757142D01*
X124088571Y-75814285D01*
X124117142Y-75842857D01*
X124174285Y-75871428D01*
X124345714Y-75871428D01*
X124402857Y-75842857D01*
X124431428Y-75814285D01*
D11*
%TO.C,J2*%
X118170000Y-64710000D02*
X116840000Y-64710000D01*
X118170000Y-67310000D02*
X115510000Y-67310000D01*
X118170000Y-74990000D02*
X115510000Y-74990000D01*
X115510000Y-67310000D02*
X115510000Y-74990000D01*
X118170000Y-67310000D02*
X118170000Y-74990000D01*
X118170000Y-66040000D02*
X118170000Y-64710000D01*
%TO.C,J3*%
X125790000Y-66040000D02*
X125790000Y-64710000D01*
X125790000Y-64710000D02*
X124460000Y-64710000D01*
X123130000Y-67310000D02*
X123130000Y-74990000D01*
X125790000Y-74990000D02*
X123130000Y-74990000D01*
X125790000Y-67310000D02*
X123130000Y-67310000D01*
X125790000Y-67310000D02*
X125790000Y-74990000D01*
%TD*%
M02*
